<mxfile host="app.diagrams.net" agent="Mozilla/5.0 (Macintosh; Intel Mac OS X 10_15_7) AppleWebKit/537.36 (KHTML, like Gecko) Chrome/137.0.0.0 Safari/537.36" version="27.1.6">
  <diagram name="Seite-1" id="7hMeD5sugoqp-91o-IG9">
    <mxGraphModel dx="1989" dy="555" grid="0" gridSize="10" guides="0" tooltips="1" connect="1" arrows="0" fold="1" page="0" pageScale="1" pageWidth="827" pageHeight="1169" math="0" shadow="0">
      <root>
        <mxCell id="0" />
        <mxCell id="1" parent="0" />
        <mxCell id="xgn5knLo7x7Y8lOP2648-39" value="" style="rounded=0;whiteSpace=wrap;html=1;fillColor=none;dashed=1;opacity=50;fontColor=light-dark(#000000,#FFFFFF);strokeColor=default;" vertex="1" parent="1">
          <mxGeometry x="200" y="558" width="640" height="442" as="geometry" />
        </mxCell>
        <mxCell id="xgn5knLo7x7Y8lOP2648-35" style="edgeStyle=orthogonalEdgeStyle;rounded=0;orthogonalLoop=1;jettySize=auto;html=1;entryX=0.95;entryY=0.642;entryDx=0;entryDy=0;entryPerimeter=0;exitX=0.005;exitY=0.63;exitDx=0;exitDy=0;exitPerimeter=0;fontColor=light-dark(#000000,#FFFFFF);strokeColor=default;" edge="1" parent="1" source="xgn5knLo7x7Y8lOP2648-21" target="xgn5knLo7x7Y8lOP2648-24">
          <mxGeometry relative="1" as="geometry" />
        </mxCell>
        <mxCell id="xgn5knLo7x7Y8lOP2648-38" value="use managed identity&lt;div&gt;with&amp;nbsp;&lt;/div&gt;&lt;div&gt;ferderated identity credential&lt;/div&gt;" style="text;html=1;align=center;verticalAlign=middle;resizable=0;points=[];autosize=1;strokeColor=none;fillColor=none;fontColor=light-dark(#000000,#FFFFFF);" vertex="1" parent="1">
          <mxGeometry x="125" y="690" width="170" height="60" as="geometry" />
        </mxCell>
        <mxCell id="xgn5knLo7x7Y8lOP2648-33" value="read secret" style="text;html=1;align=center;verticalAlign=middle;resizable=0;points=[];autosize=1;strokeColor=none;fillColor=none;fontColor=light-dark(#000000,#FFFFFF);" vertex="1" parent="1">
          <mxGeometry x="690" y="698" width="80" height="30" as="geometry" />
        </mxCell>
        <mxCell id="xgn5knLo7x7Y8lOP2648-42" value="" style="rounded=0;whiteSpace=wrap;html=1;fillColor=none;dashed=1;opacity=50;fontColor=light-dark(#000000,#FFFFFF);strokeColor=default;" vertex="1" parent="1">
          <mxGeometry x="-349" y="558" width="190" height="183" as="geometry" />
        </mxCell>
        <mxCell id="xgn5knLo7x7Y8lOP2648-40" style="edgeStyle=orthogonalEdgeStyle;rounded=0;orthogonalLoop=1;jettySize=auto;html=1;entryX=1;entryY=0.5;entryDx=0;entryDy=0;fontColor=light-dark(#000000,#FFFFFF);strokeColor=default;" edge="1" parent="1" source="xgn5knLo7x7Y8lOP2648-1" target="xgn5knLo7x7Y8lOP2648-4">
          <mxGeometry relative="1" as="geometry">
            <mxPoint x="-230" y="707" as="targetPoint" />
          </mxGeometry>
        </mxCell>
        <mxCell id="xgn5knLo7x7Y8lOP2648-1" value="" style="image;aspect=fixed;html=1;points=[];align=center;fontSize=12;image=img/lib/azure2/identity/Managed_Identities.svg;fontColor=light-dark(#000000,#FFFFFF);strokeColor=default;" vertex="1" parent="1">
          <mxGeometry x="64" y="674" width="68" height="66" as="geometry" />
        </mxCell>
        <mxCell id="xgn5knLo7x7Y8lOP2648-2" value="" style="image;aspect=fixed;html=1;points=[];align=center;fontSize=12;image=img/lib/azure2/security/Key_Vaults.svg;fontColor=light-dark(#000000,#FFFFFF);strokeColor=default;" vertex="1" parent="1">
          <mxGeometry x="-288" y="570" width="68" height="68" as="geometry" />
        </mxCell>
        <mxCell id="xgn5knLo7x7Y8lOP2648-3" value="" style="image;aspect=fixed;html=1;points=[];align=center;fontSize=12;image=img/lib/azure2/containers/Kubernetes_Services.svg;fontColor=light-dark(#000000,#FFFFFF);strokeColor=default;" vertex="1" parent="1">
          <mxGeometry x="502" y="570" width="68" height="60" as="geometry" />
        </mxCell>
        <mxCell id="xgn5knLo7x7Y8lOP2648-4" value="datadog-api-key" style="text;html=1;align=center;verticalAlign=middle;whiteSpace=wrap;rounded=0;fontColor=light-dark(#000000,#FFFFFF);strokeColor=none;" vertex="1" parent="1">
          <mxGeometry x="-334" y="692" width="94" height="30" as="geometry" />
        </mxCell>
        <mxCell id="xgn5knLo7x7Y8lOP2648-7" value="&lt;b&gt;Secrets&lt;/b&gt;" style="text;html=1;align=center;verticalAlign=middle;whiteSpace=wrap;rounded=0;fontColor=light-dark(#000000,#FFFFFF);strokeColor=none;" vertex="1" parent="1">
          <mxGeometry x="-340" y="660" width="60" height="30" as="geometry" />
        </mxCell>
        <mxCell id="xgn5knLo7x7Y8lOP2648-8" value="kv-otel-test" style="text;html=1;align=center;verticalAlign=middle;whiteSpace=wrap;rounded=0;fontColor=light-dark(#000000,#FFFFFF);strokeColor=none;" vertex="1" parent="1">
          <mxGeometry x="-299" y="528" width="90" height="30" as="geometry" />
        </mxCell>
        <mxCell id="xgn5knLo7x7Y8lOP2648-10" value="uai-otel-collector" style="text;html=1;align=center;verticalAlign=middle;resizable=0;points=[];autosize=1;strokeColor=default;fillColor=none;fontColor=light-dark(#000000,#FFFFFF);" vertex="1" parent="1">
          <mxGeometry x="43" y="650" width="110" height="30" as="geometry" />
        </mxCell>
        <mxCell id="xgn5knLo7x7Y8lOP2648-11" value="aks-otel-test" style="text;html=1;align=center;verticalAlign=middle;resizable=0;points=[];autosize=1;strokeColor=none;fillColor=none;fontColor=light-dark(#000000,#FFFFFF);" vertex="1" parent="1">
          <mxGeometry x="491" y="528" width="90" height="30" as="geometry" />
        </mxCell>
        <mxCell id="xgn5knLo7x7Y8lOP2648-13" value="otel-collector" style="text;html=1;align=center;verticalAlign=middle;resizable=0;points=[];autosize=1;strokeColor=none;fillColor=none;fontColor=light-dark(#000000,#FFFFFF);" vertex="1" parent="1">
          <mxGeometry x="741" y="660" width="90" height="30" as="geometry" />
        </mxCell>
        <mxCell id="xgn5knLo7x7Y8lOP2648-26" style="edgeStyle=orthogonalEdgeStyle;rounded=0;orthogonalLoop=1;jettySize=auto;html=1;entryX=0.5;entryY=1;entryDx=0;entryDy=0;entryPerimeter=0;fontColor=light-dark(#000000,#FFFFFF);strokeColor=default;" edge="1" parent="1" source="xgn5knLo7x7Y8lOP2648-14" target="xgn5knLo7x7Y8lOP2648-21">
          <mxGeometry relative="1" as="geometry">
            <mxPoint x="480" y="780" as="targetPoint" />
            <Array as="points">
              <mxPoint x="506" y="910" />
            </Array>
          </mxGeometry>
        </mxCell>
        <mxCell id="xgn5knLo7x7Y8lOP2648-14" value="" style="shape=image;verticalLabelPosition=bottom;labelBackgroundColor=default;verticalAlign=top;aspect=fixed;imageAspect=0;image=https://www.redhat.com/rhdc/managed-files/helm.svg;fontColor=light-dark(#000000,#FFFFFF);strokeColor=default;" vertex="1" parent="1">
          <mxGeometry x="614" y="880" width="84" height="96.99" as="geometry" />
        </mxCell>
        <mxCell id="xgn5knLo7x7Y8lOP2648-16" value="otel-collector-secret" style="text;html=1;align=center;verticalAlign=middle;resizable=0;points=[];autosize=1;strokeColor=none;fillColor=none;fontColor=light-dark(#000000,#FFFFFF);" vertex="1" parent="1">
          <mxGeometry x="611" y="660" width="130" height="30" as="geometry" />
        </mxCell>
        <mxCell id="xgn5knLo7x7Y8lOP2648-18" value="otel-collector-secret-provider-class" style="text;html=1;align=center;verticalAlign=middle;resizable=0;points=[];autosize=1;strokeColor=none;fillColor=none;fontColor=light-dark(#000000,#FFFFFF);" vertex="1" parent="1">
          <mxGeometry x="401" y="660" width="210" height="30" as="geometry" />
        </mxCell>
        <mxCell id="xgn5knLo7x7Y8lOP2648-20" value="otel-collector-service-account" style="text;html=1;align=center;verticalAlign=middle;resizable=0;points=[];autosize=1;strokeColor=none;fillColor=none;fontColor=light-dark(#000000,#FFFFFF);" vertex="1" parent="1">
          <mxGeometry x="229" y="660" width="180" height="30" as="geometry" />
        </mxCell>
        <mxCell id="xgn5knLo7x7Y8lOP2648-21" value="" style="aspect=fixed;sketch=0;html=1;dashed=0;whitespace=wrap;verticalLabelPosition=bottom;verticalAlign=top;fillColor=#2875E2;strokeColor=default;points=[[0.005,0.63,0],[0.1,0.2,0],[0.9,0.2,0],[0.5,0,0],[0.995,0.63,0],[0.72,0.99,0],[0.5,1,0],[0.28,0.99,0]];shape=mxgraph.kubernetes.icon2;prIcon=secret;fontColor=light-dark(#000000,#FFFFFF);" vertex="1" parent="1">
          <mxGeometry x="481" y="690" width="50" height="48" as="geometry" />
        </mxCell>
        <mxCell id="xgn5knLo7x7Y8lOP2648-22" value="" style="aspect=fixed;sketch=0;html=1;dashed=0;whitespace=wrap;verticalLabelPosition=bottom;verticalAlign=top;fillColor=#2875E2;strokeColor=default;points=[[0.005,0.63,0],[0.1,0.2,0],[0.9,0.2,0],[0.5,0,0],[0.995,0.63,0],[0.72,0.99,0],[0.5,1,0],[0.28,0.99,0]];shape=mxgraph.kubernetes.icon2;kubernetesLabel=1;prIcon=secret;fontColor=light-dark(#000000,#FFFFFF);" vertex="1" parent="1">
          <mxGeometry x="643" y="690" width="50" height="48" as="geometry" />
        </mxCell>
        <mxCell id="xgn5knLo7x7Y8lOP2648-23" value="" style="aspect=fixed;sketch=0;html=1;dashed=0;whitespace=wrap;verticalLabelPosition=bottom;verticalAlign=top;fillColor=#2875E2;strokeColor=default;points=[[0.005,0.63,0],[0.1,0.2,0],[0.9,0.2,0],[0.5,0,0],[0.995,0.63,0],[0.72,0.99,0],[0.5,1,0],[0.28,0.99,0]];shape=mxgraph.kubernetes.icon2;kubernetesLabel=1;prIcon=deploy;fontColor=light-dark(#000000,#FFFFFF);" vertex="1" parent="1">
          <mxGeometry x="761" y="690" width="50" height="48" as="geometry" />
        </mxCell>
        <mxCell id="xgn5knLo7x7Y8lOP2648-37" style="edgeStyle=orthogonalEdgeStyle;rounded=0;orthogonalLoop=1;jettySize=auto;html=1;entryX=0.98;entryY=0.599;entryDx=0;entryDy=0;entryPerimeter=0;fontColor=light-dark(#000000,#FFFFFF);strokeColor=default;" edge="1" parent="1" source="xgn5knLo7x7Y8lOP2648-24" target="xgn5knLo7x7Y8lOP2648-1">
          <mxGeometry relative="1" as="geometry">
            <mxPoint x="150" y="730" as="targetPoint" />
          </mxGeometry>
        </mxCell>
        <mxCell id="xgn5knLo7x7Y8lOP2648-24" value="" style="aspect=fixed;sketch=0;html=1;dashed=0;whitespace=wrap;verticalLabelPosition=bottom;verticalAlign=top;fillColor=#2875E2;strokeColor=default;points=[[0.005,0.63,0],[0.1,0.2,0],[0.9,0.2,0],[0.5,0,0],[0.995,0.63,0],[0.72,0.99,0],[0.5,1,0],[0.28,0.99,0]];shape=mxgraph.kubernetes.icon2;kubernetesLabel=1;prIcon=user;fontColor=light-dark(#000000,#FFFFFF);" vertex="1" parent="1">
          <mxGeometry x="294" y="690" width="50" height="48" as="geometry" />
        </mxCell>
        <mxCell id="xgn5knLo7x7Y8lOP2648-25" style="edgeStyle=orthogonalEdgeStyle;rounded=0;orthogonalLoop=1;jettySize=auto;html=1;entryX=0.5;entryY=1;entryDx=0;entryDy=0;entryPerimeter=0;fontColor=light-dark(#000000,#FFFFFF);strokeColor=default;" edge="1" parent="1" source="xgn5knLo7x7Y8lOP2648-14" target="xgn5knLo7x7Y8lOP2648-24">
          <mxGeometry relative="1" as="geometry" />
        </mxCell>
        <mxCell id="xgn5knLo7x7Y8lOP2648-27" style="edgeStyle=orthogonalEdgeStyle;rounded=0;orthogonalLoop=1;jettySize=auto;html=1;entryX=0.5;entryY=1;entryDx=0;entryDy=0;entryPerimeter=0;fontColor=light-dark(#000000,#FFFFFF);strokeColor=default;" edge="1" parent="1" source="xgn5knLo7x7Y8lOP2648-14" target="xgn5knLo7x7Y8lOP2648-23">
          <mxGeometry relative="1" as="geometry" />
        </mxCell>
        <mxCell id="xgn5knLo7x7Y8lOP2648-28" style="edgeStyle=orthogonalEdgeStyle;rounded=0;orthogonalLoop=1;jettySize=auto;html=1;entryX=0.961;entryY=0.619;entryDx=0;entryDy=0;entryPerimeter=0;fontColor=light-dark(#000000,#FFFFFF);strokeColor=default;" edge="1" parent="1" target="xgn5knLo7x7Y8lOP2648-22">
          <mxGeometry relative="1" as="geometry">
            <mxPoint x="760" y="720" as="sourcePoint" />
            <Array as="points">
              <mxPoint x="727" y="720" />
            </Array>
          </mxGeometry>
        </mxCell>
        <mxCell id="xgn5knLo7x7Y8lOP2648-29" style="edgeStyle=orthogonalEdgeStyle;rounded=0;orthogonalLoop=1;jettySize=auto;html=1;exitX=0.995;exitY=0.63;exitDx=0;exitDy=0;exitPerimeter=0;fontColor=light-dark(#000000,#FFFFFF);strokeColor=default;" edge="1" parent="1" source="xgn5knLo7x7Y8lOP2648-21">
          <mxGeometry relative="1" as="geometry">
            <mxPoint x="643" y="720" as="targetPoint" />
          </mxGeometry>
        </mxCell>
        <mxCell id="xgn5knLo7x7Y8lOP2648-30" value="read secrets&lt;div&gt;with&amp;nbsp;&lt;/div&gt;&lt;div&gt;Key Vault Secrets User&lt;/div&gt;&lt;div&gt;role assignments&lt;/div&gt;" style="text;html=1;align=center;verticalAlign=middle;resizable=0;points=[];autosize=1;strokeColor=none;fillColor=none;fontColor=light-dark(#000000,#FFFFFF);" vertex="1" parent="1">
          <mxGeometry x="-118" y="672" width="150" height="70" as="geometry" />
        </mxCell>
        <mxCell id="xgn5knLo7x7Y8lOP2648-32" value="provide secret" style="text;html=1;align=center;verticalAlign=middle;resizable=0;points=[];autosize=1;strokeColor=none;fillColor=none;fontColor=light-dark(#000000,#FFFFFF);" vertex="1" parent="1">
          <mxGeometry x="532" y="697" width="100" height="30" as="geometry" />
        </mxCell>
        <mxCell id="xgn5knLo7x7Y8lOP2648-34" value="deploy resources" style="text;html=1;align=center;verticalAlign=middle;resizable=0;points=[];autosize=1;strokeColor=none;fillColor=none;fontColor=light-dark(#000000,#FFFFFF);" vertex="1" parent="1">
          <mxGeometry x="601" y="850" width="110" height="30" as="geometry" />
        </mxCell>
        <mxCell id="xgn5knLo7x7Y8lOP2648-36" value="use service account" style="text;html=1;align=center;verticalAlign=middle;resizable=0;points=[];autosize=1;strokeColor=none;fillColor=none;fontColor=light-dark(#000000,#FFFFFF);" vertex="1" parent="1">
          <mxGeometry x="356" y="697" width="130" height="30" as="geometry" />
        </mxCell>
      </root>
    </mxGraphModel>
  </diagram>
</mxfile>
